<svg viewBox="0 0 1440 320" xmlns="http://www.w3.org/2000/svg">
  <path fill="#4a63e7" fill-opacity="0.8" d="M0,192L60,192C120,192,240,192,360,176C480,160,600,128,720,106.7C840,85,960,75,1080,96C1200,117,1320,171,1380,197.3L1440,224L1440,320L1380,320C1320,320,1200,320,1080,320C960,320,840,320,720,320C600,320,480,320,360,320C240,320,120,320,60,320L0,320Z"></path>
  <path fill="#7b9aff" fill-opacity="0.5" d="M0,224L60,208C120,192,240,160,360,144C480,128,600,128,720,154.7C840,181,960,235,1080,234.7C1200,235,1320,181,1380,154.7L1440,128L1440,320L1380,320C1320,320,1200,320,1080,320C960,320,840,320,720,320C600,320,480,320,360,320C240,320,120,320,60,320L0,320Z"></path>
</svg>
